<?xml version="1.0" encoding="UTF-8" standalone="no"?>
<svg
   width="24"
   height="24"
   viewBox="0 0 24 24"
   version="1.1"
   id="svg968"
   inkscape:version="1.2 (dc2aedaf03, 2022-05-15)"
   sodipodi:docname="iconeAjuda.svg"
   inkscape:export-filename="logo.png"
   inkscape:export-xdpi="960"
   inkscape:export-ydpi="960"
   xmlns:inkscape="http://www.inkscape.org/namespaces/inkscape"
   xmlns:sodipodi="http://sodipodi.sourceforge.net/DTD/sodipodi-0.dtd"
   xmlns="http://www.w3.org/2000/svg"
   xmlns:svg="http://www.w3.org/2000/svg"
   xmlns:rdf="http://www.w3.org/1999/02/22-rdf-syntax-ns#"
   xmlns:cc="http://creativecommons.org/ns#"
   xmlns:dc="http://purl.org/dc/elements/1.1/">
  <defs
     id="defs962">
    <inkscape:path-effect
       effect="bspline"
       id="path-effect723"
       is_visible="true"
       lpeversion="1"
       weight="33.333333"
       steps="2"
       helper_size="0"
       apply_no_weight="true"
       apply_with_weight="true"
       only_selected="false" />
    <inkscape:path-effect
       effect="spiro"
       id="path-effect719"
       is_visible="true"
       lpeversion="1" />
  </defs>
  <sodipodi:namedview
     id="base"
     pagecolor="#ffffff"
     bordercolor="#666666"
     borderopacity="1.0"
     inkscape:pageopacity="0.0"
     inkscape:pageshadow="2"
     inkscape:zoom="22.4"
     inkscape:cx="8.59375"
     inkscape:cy="11.160714"
     inkscape:document-units="px"
     inkscape:current-layer="layer1"
     inkscape:document-rotation="0"
     showgrid="true"
     units="px"
     borderlayer="true"
     inkscape:pagecheckerboard="true"
     inkscape:showpageshadow="2"
     inkscape:deskcolor="#d1d1d1"
     inkscape:window-width="1920"
     inkscape:window-height="1009"
     inkscape:window-x="-8"
     inkscape:window-y="-8"
     inkscape:window-maximized="1">
    <inkscape:grid
       type="xygrid"
       id="grid324"
       spacingx="2"
       spacingy="2"
       empspacing="6"
       originx="0"
       originy="0" />
  </sodipodi:namedview>
  <metadata
     id="metadata965">
    <rdf:RDF>
      <cc:Work
         rdf:about="">
        <dc:format>image/svg+xml</dc:format>
        <dc:type
           rdf:resource="http://purl.org/dc/dcmitype/StillImage" />
      </cc:Work>
    </rdf:RDF>
  </metadata>
  <g
     inkscape:label="Layer 1"
     inkscape:groupmode="layer"
     id="layer1">
    <path
       id="path888"
       style="fill:#ffffff;fill-rule:evenodd;stroke-width:1.076;stroke-linecap:round;stroke-linejoin:round;paint-order:fill markers stroke;stop-color:#000000"
       d="M 12 0 A 12 12 0 0 0 0 12 A 12 12 0 0 0 12 24 A 12 12 0 0 0 24 12 A 12 12 0 0 0 12 0 z M 12 2.2324219 A 9.7678576 9.7678576 0 0 1 21.767578 12 A 9.7678576 9.7678576 0 0 1 12 21.767578 A 9.7678576 9.7678576 0 0 1 2.2324219 12 A 9.7678576 9.7678576 0 0 1 12 2.2324219 z " />
    <path
       id="path880"
       style="font-size:21.3333px;line-height:1.25;font-family:'Segoe UI';-inkscape-font-specification:'Segoe UI';text-align:center;text-anchor:middle;fill:#ffffff"
       sodipodi:type="inkscape:offset"
       inkscape:radius="0.33965993"
       inkscape:original="M 11.728516 4.3125 C 10.589628 4.3125 9.4902326 4.6458343 8.4277344 5.3125 L 8.4277344 7.1464844 C 9.2888442 6.2228747 10.304907 5.7597656 11.478516 5.7597656 C 11.804904 5.7597656 12.114584 5.8062067 12.40625 5.8964844 C 12.697916 5.9798176 12.955512 6.1076392 13.177734 6.28125 C 13.399956 6.4548609 13.572266 6.6707904 13.697266 6.9277344 C 13.82921 7.1846784 13.896484 7.4791672 13.896484 7.8125 C 13.896484 8.2013883 13.805555 8.5583772 13.625 8.8847656 C 13.451389 9.2042096 13.232639 9.5138893 12.96875 9.8125 C 12.704862 10.104166 12.416016 10.395834 12.103516 10.6875 C 11.791016 10.972222 11.504123 11.271485 11.240234 11.583984 C 10.976346 11.896484 10.752821 12.23264 10.572266 12.59375 C 10.398654 12.947917 10.3125 13.346572 10.3125 13.791016 C 10.3125 14.075738 10.336152 14.364584 10.384766 14.65625 C 10.433376 14.940972 10.490234 15.17296 10.552734 15.353516 L 12.228516 15.353516 C 12.152127 15.17296 12.076389 14.95421 12 14.697266 C 11.923611 14.433377 11.884766 14.14171 11.884766 13.822266 C 11.884766 13.447266 11.975695 13.103515 12.15625 12.791016 C 12.336805 12.478516 12.563151 12.181206 12.833984 11.896484 C 13.111762 11.604818 13.409072 11.313151 13.728516 11.021484 C 14.04796 10.729818 14.344402 10.417317 14.615234 10.083984 C 14.893012 9.743707 15.122179 9.3715271 15.302734 8.96875 C 15.48329 8.5659729 15.572266 8.1076381 15.572266 7.59375 C 15.572266 7.0520841 15.472873 6.5757372 15.271484 6.1660156 C 15.070096 5.756294 14.791666 5.4173172 14.4375 5.1464844 C 14.090278 4.868707 13.684027 4.6603731 13.21875 4.5214844 C 12.753473 4.3825957 12.256292 4.3125 11.728516 4.3125 z M 11.490234 17.384766 C 11.177735 17.384766 10.906901 17.49935 10.677734 17.728516 C 10.448568 17.943793 10.333984 18.214627 10.333984 18.541016 C 10.333984 18.86046 10.448568 19.131294 10.677734 19.353516 C 10.913845 19.575738 11.184679 19.6875 11.490234 19.6875 C 11.79579 19.6875 12.066624 19.575738 12.302734 19.353516 C 12.5319 19.131294 12.646484 18.86046 12.646484 18.541016 C 12.646484 18.214627 12.5319 17.943793 12.302734 17.728516 C 12.073568 17.49935 11.802734 17.384766 11.490234 17.384766 z "
       d="m 11.728516,3.9726562 c -1.205164,1e-7 -2.3717954,0.3570959 -3.4804691,1.0527344 A 0.3396939,0.3396939 0 0 0 8.0878906,5.3125 V 7.1464844 A 0.3396939,0.3396939 0 0 0 8.6757812,7.3789062 C 9.4846314,6.5113493 10.39426,6.0996094 11.478516,6.0996094 c 0.294168,0 0.569901,0.041167 0.828125,0.1210937 a 0.3396939,0.3396939 0 0 0 0.0059,0.00195 c 0.254244,0.072641 0.470641,0.1811647 0.65625,0.3261719 0.181677,0.1419348 0.319797,0.3135031 0.423828,0.5273438 a 0.3396939,0.3396939 0 0 0 0.002,0.00586 c 0.105201,0.2048641 0.16211,0.4428366 0.16211,0.7304688 0,0.3359426 -0.07536,0.6313441 -0.228516,0.9082031 a 0.3396939,0.3396939 0 0 0 -0.002,0.00195 c -0.160429,0.2951896 -0.362924,0.5841465 -0.611328,0.8652344 -0.256029,0.2827948 -0.538558,0.5667174 -0.84375,0.8515624 -0.321974,0.293689 -0.618578,0.603621 -0.890625,0.925781 -0.280355,0.332 -0.519897,0.690184 -0.712891,1.076172 a 0.3396939,0.3396939 0 0 0 0,0.002 c -0.198404,0.404743 -0.2949218,0.859318 -0.2949218,1.347657 0,0.303532 0.024516,0.61196 0.076172,0.921875 a 0.3396939,0.3396939 0 0 0 0.002,0 c 0.05085,0.297863 0.110552,0.546584 0.181641,0.751953 a 0.3396939,0.3396939 0 0 0 0.320312,0.228515 h 1.675782 a 0.3396939,0.3396939 0 0 0 0.3125,-0.472656 c -0.06942,-0.164088 -0.140925,-0.372457 -0.214844,-0.621094 -0.06573,-0.228389 -0.101563,-0.48687 -0.101563,-0.777343 0,-0.320094 0.07527,-0.599482 0.226563,-0.861328 0.165725,-0.286833 0.37432,-0.562437 0.628906,-0.830079 0.272295,-0.285908 0.563279,-0.572975 0.876953,-0.859375 0.331388,-0.302571 0.640068,-0.625814 0.921875,-0.972656 0.296631,-0.3633714 0.541885,-0.7620044 0.734375,-1.1914061 0.202862,-0.452536 0.298828,-0.9605774 0.298828,-1.5136719 0,-0.5832165 -0.108091,-1.1145761 -0.335937,-1.578125 C 15.353879,5.5633736 15.04235,5.1819306 14.650391,4.8808594 l -0.0039,-0.00195 C 14.263779,4.5734954 13.8175,4.3448928 13.316406,4.1953125 12.817595,4.0464136 12.286366,3.9726563 11.728516,3.9726562 Z M 11.490234,17.044922 c -0.393694,0 -0.765565,0.158165 -1.048828,0.439453 -0.28902,0.273636 -0.4472654,0.652642 -0.4472654,1.056641 0,0.400667 0.1597064,0.777795 0.4472654,1.05664 a 0.3396939,0.3396939 0 0 0 0.0039,0.0039 c 0.289121,0.272114 0.656543,0.425782 1.044922,0.425782 0.38838,0 0.755803,-0.153668 1.044922,-0.425782 a 0.3396939,0.3396939 0 0 0 0.0039,-0.0039 c 0.287559,-0.278845 0.447266,-0.655973 0.447266,-1.05664 0,-0.403999 -0.158245,-0.783005 -0.447266,-1.056641 -0.283261,-0.281288 -0.655133,-0.439453 -1.048828,-0.439453 z" />
  </g>
</svg>
