<?xml version="1.0" encoding="UTF-8" standalone="no"?>
<!-- Created with Inkscape (http://www.inkscape.org/) -->

<svg
   width="16"
   height="16"
   viewBox="0 0 4.2333333 4.2333333"
   version="1.1"
   id="svg5"
   inkscape:version="1.2 (dc2aedaf03, 2022-05-15)"
   sodipodi:docname="iconeCompartilhar.svg"
   xmlns:inkscape="http://www.inkscape.org/namespaces/inkscape"
   xmlns:sodipodi="http://sodipodi.sourceforge.net/DTD/sodipodi-0.dtd"
   xmlns="http://www.w3.org/2000/svg"
   xmlns:svg="http://www.w3.org/2000/svg">
  <sodipodi:namedview
     id="namedview7"
     pagecolor="#ffffff"
     bordercolor="#999999"
     borderopacity="1"
     inkscape:showpageshadow="true"
     inkscape:pageopacity="0"
     inkscape:pagecheckerboard="true"
     inkscape:deskcolor="#d1d1d1"
     inkscape:document-units="px"
     showgrid="true"
     inkscape:zoom="31.786133"
     inkscape:cx="8.0223661"
     inkscape:cy="9.4380778"
     inkscape:window-width="1920"
     inkscape:window-height="1009"
     inkscape:window-x="-8"
     inkscape:window-y="-8"
     inkscape:window-maximized="1"
     inkscape:current-layer="layer1">
    <inkscape:grid
       type="xygrid"
       id="grid326"
       spacingx="3.175"
       spacingy="3.7041667"
       empspacing="6"
       originx="0"
       originy="0" />
  </sodipodi:namedview>
  <defs
     id="defs2" />
  <g
     inkscape:label="Camada 1"
     inkscape:groupmode="layer"
     id="layer1">
    <path
       id="ellipse1228"
       style="fill:#ffffff;stroke:none;stroke-width:0.441303;stroke-linecap:round;stop-color:#000000"
       d="M 2.7590047,1.5821347 A 1.4746357,0.91137505 0 0 0 1.2841593,2.493707 1.4746357,0.91137505 0 0 0 2.7590047,3.4047624 1.4746357,0.91137505 0 0 0 4.2333333,2.493707 1.4746357,0.91137505 0 0 0 2.7590047,1.5821347 Z m 0,0.2495972 A 1.2582153,0.66165924 0 0 1 4.0173258,2.493707 1.2582153,0.66165924 0 0 1 2.7590047,3.1551653 1.2582153,0.66165924 0 0 1 1.5006836,2.493707 1.2582153,0.66165924 0 0 1 2.7590047,1.8317319 Z" />
    <path
       id="circle1230"
       style="fill:#ffffff;stroke:none;stroke-width:0.441303;stroke-linecap:round;stop-color:#000000"
       d="M 2.7590047,0.4783261 A 0.6108734,0.6108734 0 0 0 2.1481893,1.0891415 0.6108734,0.6108734 0 0 0 2.7590047,1.7004737 0.6108734,0.6108734 0 0 0 3.3698201,1.0891415 0.6108734,0.6108734 0 0 0 2.7590047,0.4783261 Z m 0,0.19171959 A 0.41942462,0.41942462 0 0 1 3.1781006,1.0891415 0.41942462,0.41942462 0 0 1 2.7590047,1.5087542 0.41942462,0.41942462 0 0 1 2.3393921,1.0891415 0.41942462,0.41942462 0 0 1 2.7590047,0.67004569 Z" />
    <path
       id="path1238"
       style="fill:#ffffff;stroke:none;stroke-width:0.441303;stroke-linecap:round;stop-color:#000000"
       d="M 1.5004251,1.5821921 A 1.4746357,0.91137505 0 0 0 0.02557966,2.4937644 1.4746357,0.91137505 0 0 0 1.5004251,3.4048198 1.4746357,0.91137505 0 0 0 2.9747537,2.4937644 1.4746357,0.91137505 0 0 0 1.5004251,1.5821921 Z m 0,0.2495972 A 1.2582153,0.66165924 0 0 1 2.7587462,2.4937644 1.2582153,0.66165924 0 0 1 1.5004251,3.1552227 1.2582153,0.66165924 0 0 1 0.24210396,2.4937644 1.2582153,0.66165924 0 0 1 1.5004251,1.8317893 Z" />
    <path
       id="path1240"
       style="fill:#ffffff;stroke:none;stroke-width:0.441303;stroke-linecap:round;stop-color:#000000"
       d="M 1.5004251,0.47838351 A 0.6108734,0.6108734 0 0 0 0.88960966,1.0891989 0.6108734,0.6108734 0 0 0 1.5004251,1.7005311 0.6108734,0.6108734 0 0 0 2.1112405,1.0891989 0.6108734,0.6108734 0 0 0 1.5004251,0.47838351 Z m 0,0.19171958 A 0.41942462,0.41942462 0 0 1 1.919521,1.0891989 0.41942462,0.41942462 0 0 1 1.5004251,1.5088116 0.41942462,0.41942462 0 0 1 1.0808125,1.0891989 0.41942462,0.41942462 0 0 1 1.5004251,0.67010309 Z" />
    <g
       id="g1244"
       transform="translate(0,-0.07144787)">
      <ellipse
         style="fill:#ffffff;stroke:none;stroke-width:0.441303;stroke-linecap:round;stop-color:#000000"
         id="path1224"
         cx="2.1166666"
         cy="2.7892313"
         rx="1.4746357"
         ry="0.91137505" />
      <circle
         style="fill:#ffffff;stroke:none;stroke-width:0.441303;stroke-linecap:round;stop-color:#000000"
         id="path1226"
         cx="2.1166666"
         cy="1.3849925"
         r="0.6108734" />
    </g>
  </g>
</svg>
